<?xml version="1.0" standalone="no"?>
<!DOCTYPE svg PUBLIC "-//W3C//DTD SVG 20010904//EN"
 "http://www.w3.org/TR/2001/REC-SVG-20010904/DTD/svg10.dtd">
<svg version="1.0" xmlns="http://www.w3.org/2000/svg"
 width="624.000000pt" height="351.000000pt" viewBox="0 0 624.000000 351.000000"
 preserveAspectRatio="xMidYMid meet">
<metadata>
Created by potrace 1.16, written by Peter Selinger 2001-2019
</metadata>
<g transform="translate(0.000000,351.000000) scale(0.100000,-0.100000)"
fill="#000000" stroke="none">
<path d="M1732 2928 c0 -18 -2 -37 -3 -43 -5 -15 34 -75 48 -75 7 0 57 -20
110 -45 53 -25 97 -44 99 -42 7 7 -129 116 -138 111 -6 -4 -8 -2 -4 4 3 6 -13
27 -38 48 -24 20 -47 45 -49 55 -8 31 -25 21 -25 -13z"/>
<path d="M720 2819 c0 -33 19 -59 43 -59 23 0 27 -5 67 -92 18 -39 30 -50 73
-68 29 -13 64 -31 80 -42 15 -11 27 -17 27 -14 0 10 135 -56 143 -70 9 -16 37
-19 37 -4 0 5 -16 16 -35 25 -20 8 -93 55 -164 104 -126 89 -201 158 -201 185
0 15 -45 56 -61 56 -5 0 -9 -9 -9 -21z"/>
<path d="M1655 2409 c-4 -5 -4 -22 0 -36 3 -14 1 -41 -6 -60 -11 -33 -11 -34
-31 -16 -19 17 -20 17 -34 -2 -8 -10 -14 -25 -14 -33 0 -25 21 -54 36 -48 19
7 18 -8 -6 -55 -12 -22 -19 -43 -16 -47 11 -18 18 -270 8 -276 -14 -9 -4 -36
13 -36 17 0 27 27 14 36 -9 5 -8 80 6 261 1 18 10 44 19 58 9 14 12 25 7 25
-9 0 6 50 27 87 16 28 22 124 9 141 -12 15 -24 15 -32 1z"/>
<path d="M2188 2221 c-14 -19 -164 -49 -193 -37 -9 3 -15 0 -15 -8 0 -18 -33
-46 -53 -46 -11 0 -17 -8 -17 -22 -1 -33 -22 -67 -51 -81 -27 -14 -36 -42 -19
-62 18 -22 60 1 60 34 0 28 55 96 102 125 41 27 249 17 281 -13 6 -6 -10 -118
-18 -129 -6 -7 -35 12 -35 23 0 21 -21 23 -64 9 -21 -8 -44 -14 -51 -14 -6 0
-33 -20 -60 -44 -26 -24 -53 -42 -60 -40 -8 3 -12 -4 -12 -20 0 -14 3 -26 8
-26 5 0 9 5 9 10 0 6 6 10 13 10 6 1 21 15 32 32 26 41 39 44 58 14 15 -23 15
-26 1 -41 -23 -23 -12 -28 22 -10 16 8 35 15 43 15 7 0 29 14 48 30 18 17 40
30 48 30 9 0 15 10 16 23 l0 22 9 -22 c11 -28 15 -28 40 -5 11 10 40 28 64 41
l45 22 -39 40 c-21 22 -45 53 -52 70 -8 19 -20 29 -34 29 -34 0 -84 21 -84 35
0 21 -29 25 -42 6z"/>
<path d="M1571 1506 c-6 -7 -9 -21 -5 -30 4 -9 1 -16 -6 -16 -9 0 -7 -7 5 -20
14 -16 16 -23 7 -32 -16 -16 -15 -55 2 -65 23 -14 108 -192 101 -214 -4 -12
-2 -19 7 -19 21 0 89 -149 86 -187 -2 -17 -5 -29 -7 -27 -6 5 -41 -27 -41 -38
0 -4 6 -8 13 -8 15 0 47 35 47 51 0 6 7 9 15 6 11 -5 12 -1 5 18 -5 14 -7 32
-4 40 4 10 2 14 -7 10 -10 -3 -27 23 -54 81 -22 48 -59 127 -82 176 -24 49
-43 93 -43 96 0 8 24 -18 119 -131 65 -77 95 -107 76 -76 -4 6 1 16 11 23 18
13 12 36 -9 36 -7 0 -54 61 -106 136 -51 74 -96 133 -99 130 -3 -3 1 -12 8
-21 7 -8 10 -15 6 -15 -3 0 3 -9 14 -20 11 -11 20 -24 20 -29 0 -13 -25 -20
-38 -12 -14 9 -24 149 -11 157 5 3 9 0 9 -5 0 -6 7 -11 15 -11 20 0 19 16 -1
24 -25 9 -41 7 -53 -8z"/>
</g>
</svg>
